<?xml version="1.0" encoding="utf-8"?>
<!-- Generator: Adobe Illustrator 27.9.0, SVG Export Plug-In . SVG Version: 6.00 Build 0)  -->
<svg version="1.1" id="Layer_1" xmlns="http://www.w3.org/2000/svg" xmlns:xlink="http://www.w3.org/1999/xlink" x="0px" y="0px"
	 viewBox="0 0 1024 1024" style="enable-background:new 0 0 1024 1024;" xml:space="preserve">
<style type="text/css">
	.st0{fill:#FFFFFF;}
	.st1{fill:#247EBF;}
	.st2{fill:#010101;}
</style>
<g>
	<rect x="83.6" y="157.7" width="856.8" height="543.5"/>
	<g id="_x33_6RrnQ_00000072266787033838775310000009784597988697640359_">
		<g>
			<path class="st0" d="M823.9,658.1c-4.9,0-9.3,0-14.2,0c-0.9-8.4-1.8-16.7-2.7-25.3c-4.8,0-9.6,0-14.8,0
				c-0.8,8.3-1.5,16.6-2.3,25.2c-4.7,0-9.2,0-14.3,0c4.1-34.1,8.3-68.2,12.4-102.4c7.8,0,15.5,0,23.3,0
				C815.5,589.8,819.7,623.8,823.9,658.1z M793.5,620.1c4.4,0,8.3,0,12.5,0c-1.6-17.6-3.1-34.9-4.6-52.1c-2.8-0.9-3.3,0.3-3.5,2.5
				c-0.8,10.5-1.8,21-2.7,31.5C794.6,608.1,794.1,614.1,793.5,620.1z"/>
			<path class="st0" d="M832.4,555.6c8.8,0,17.3-0.4,25.8,0.1c9.7,0.6,15.5,6.7,15.9,16.7c0.4,10.7,0.4,21.4,0,32
				c-0.4,10.3-7.1,16.6-17.5,17.3c-2.4,0.2-4.8,0.2-7.1,0c-2.8-0.2-3.7,0.7-3.7,3.6c0.2,9.7,0.1,19.5,0.1,29.2c0,1,0,2.1,0,3.4
				c-4.6,0-8.9,0-13.5,0C832.4,624,832.4,590,832.4,555.6z M845.9,588.7c0,5.9-0.1,11.9,0.1,17.8c0,1,0.4,2.6,1.1,2.9
				c6.5,2.8,13.4-1.6,13.6-8.7c0.2-7.4,0.1-14.7,0.1-22.1c0-9.6-1.7-11.1-11.3-11c-0.2,0-0.5,0-0.7,0c-2.2-0.3-2.9,0.7-2.9,2.8
				C845.9,576.6,845.9,582.7,845.9,588.7z"/>
			<path class="st0" d="M884.2,555.6c4.5,0,8.8,0,13.4,0c0,34.2,0,68.2,0,102.4c-4.4,0-8.7,0-13.4,0
				C884.2,624,884.2,590,884.2,555.6z"/>
			<path class="st0" d="M763.6,651.7c-0.6-21.6-1.3-43.3-1.9-65.2c2.4,0,4.5,0,6.9,0c0,23.8,0,47.6,0,71.6c-3.9,0-7.7,0-12.3,0
				c-3.1-21.8-6.3-43.7-9.4-65.5c-0.5,0-1,0.1-1.6,0.1c0.5,21.7,1,43.4,1.5,65.4c-2.5,0-4.6,0-6.8,0c0-23.9,0-47.7,0-71.7
				c3.9,0,7.5,0,11.5,0c1.5,8,3.2,15.9,4.4,23.9c1.9,12.5,3.4,25.1,5.1,37.7c0.2,1.4,0.9,2.8,1.4,4.2
				C762.8,652,763.2,651.8,763.6,651.7z"/>
			<path class="st0" d="M671.1,622.5c0,7.9,0.1,15.9,0,23.8c-0.1,4.4-0.3,9.1-5.2,11.1c-5.7,2.3-11.8,2.8-16.9-1.1
				c-2-1.5-3.4-5-3.5-7.7c-0.4-13.5-0.4-27-0.4-40.5c0-4.4,0-8.8,0.4-13.1c0.5-5.8,4.6-9.3,10.4-9.6c1.1,0,2.1,0,3.2,0
				c7.8,0.1,11.7,3.7,11.9,11.4C671.2,605.5,671,614,671.1,622.5C671,622.5,671.1,622.5,671.1,622.5z M652.3,620.8
				C652.4,620.8,652.4,620.8,652.3,620.8c0.1,9.2,0,18.5,0.1,27.7c0,3,2.5,4.8,5.9,4.7c3.4-0.1,5.4-1.8,5.5-4.8
				c0.3-6.6,0.6-13.3,0.5-19.9c0-10.3-0.3-20.6-0.5-30.9c-0.1-4.3-2-6.4-5.8-6.4c-3.8,0-5.7,2-5.8,6.1
				C652.3,605.2,652.3,613,652.3,620.8z"/>
			<path class="st0" d="M686.7,631c0,9.2,0,18.1,0,27.1c-2.4,0-4.5,0-6.9,0c0-23.7,0-47.5,0-71.5c5.4,0,11-0.6,16.4,0.2
				c5.3,0.7,7.9,4.1,8.1,9.7c0.3,8.2,0.3,16.4-0.1,24.5c-0.3,6.6-4.1,9.4-12.3,9.9C690.4,631.1,688.7,631,686.7,631z M686.9,624.2
				c2.2,0,4.1,0.1,6,0c3-0.1,4.5-1.9,4.6-4.8c0.1-7.2,0.1-14.4,0-21.6c-0.1-3.2-2-5-5.2-5.1c-1.7-0.1-3.5,0-5.3,0
				C686.9,603.3,686.9,613.5,686.9,624.2z"/>
			<path class="st0" d="M719,618.7c4.5,0,8.8,0,13.2,0c0,2.2,0,4,0,6.4c-4.3,0-8.7,0-13.2,0c0,9.1,0,17.7,0,26.7c4.7,0,9.4,0,14.3,0
				c0,2.3,0,4.1,0,6.2c-7.1,0-14.2,0-21.4,0c0-23.8,0-47.6,0-71.6c7.2,0,14.3,0,21.5,0c0,2,0,3.9,0,6.2c-4.8,0-9.5,0-14.4,0
				C719,601.4,719,609.8,719,618.7z"/>
		</g>
	</g>
	<g id="hM28Tf_00000136388293949330021620000000199632804795992226_">
		<g>
			<g id="Pd6fNa_00000076570645796202243490000002501451486278974360_">
				<g>
					<path class="st0" d="M713.1,458.5c-7.7,0-15.4,0.2-23.1-0.1c-5-0.2-10-0.7-14.9-1.7c-4.7-0.9-6.8-4.7-6.9-9.2
						c-0.2-12-0.2-24.1,0-36.1c0.1-5.3,3.1-8.7,8.4-9.7c2.6-0.5,5.2-0.9,7.8-0.9c19.8-0.1,39.6-0.1,59.4,0.1c3.1,0,6.3,1,9.1,2.1
						c2.8,1.1,4.5,3.6,4.5,6.9c0.1,12.5,0.3,25,0.1,37.4c-0.1,6.2-3.3,9.4-9.6,10.2c-3.7,0.5-7.4,0.8-11.1,0.9
						C729,458.5,721.1,458.5,713.1,458.5z M713,448.8C713,448.8,713,448.8,713,448.8c7.3,0,14.7,0.1,22-0.1c4-0.1,4.8-1,4.8-4.9
						c0-9.7,0-19.5,0-29.2c0-3.6-0.8-4.7-4.5-4.7c-9.6-0.2-19.2-0.3-28.9-0.4c-4.9,0-9.9,0.2-14.8,0.2c-4.1,0-5.7,1.4-5.7,6.4
						c0,8.8,0,17.7,0,26.5c0,4.8,1.2,6,5.9,6.1C698.8,448.8,705.9,448.8,713,448.8z"/>
					<path class="st0" d="M583.6,437.2c0-2.9,0-5.5,0-8.4c1.1,0,2.2,0,3.2,0c13.4,0,26.7,0,40.1,0c1.7,0,3.6-0.2,5.1-0.9
						c1.1-0.5,2.4-2,2.5-3.1c0.3-3.5,0.1-7.1,0.1-10.6c0-2.4-1.6-3.4-3.6-3.9c-1.2-0.3-2.4-0.4-3.7-0.4c-14.4,0-28.8,0-43.2-0.1
						c-2.7,0-3.4,0.8-3.4,3.5c0.1,14,0,28,0.1,42c0,2.7-0.9,3.4-3.4,3.3c-4.1-0.1-8.1-0.1-12.2,0c-1.6,0-2.4-0.4-2.4-2.3
						c0-18.2,0-36.3,0-54.5c0-0.2,0.1-0.5,0.3-1c0.8,0,1.7,0,2.6,0c23.8,0,47.6,0,71.4,0c2.7,0,5.5,0.3,8.1,1
						c3.9,1.1,7.1,3.3,7.3,7.9c0.2,4.9,0.4,9.9,0.3,14.8c0,2.6-1.1,5-3.8,6.2c-0.5,0.2-0.9,0.8-1.5,1.3c1.2,0.5,2.1,0.9,3,1.3
						c2.5,1.1,3.9,2.9,3.8,5.7c-0.1,5.6-0.1,11.2,0,16.7c0,1.8-0.7,2.6-2.5,2.6c-4.5,0-9,0-13.5,0c-1.9,0-2.6-0.8-2.6-2.8
						c0.1-4.5-0.1-9,0.1-13.5c0.1-2.9-1.3-4.2-3.8-4.7c-1.2-0.2-2.5-0.2-3.7-0.2c-13.9,0-27.8,0-41.6,0
						C585.8,437.2,584.9,437.2,583.6,437.2z"/>
					<path class="st0" d="M460.9,400.8c1.1,0,1.9,0,2.7,0c24.1,0,48.1-0.1,72.2,0.1c3.1,0,6.3,0.9,9.2,2c3.1,1.2,4.7,3.9,4.8,7.3
						c0.2,7.2,0.2,14.3,0.2,21.5c0,7.6-4.3,10.6-11.2,11c-10.7,0.6-21.4,0.3-32.1,0.4c-7.5,0-15,0-22.6,0c-1.6,0-2.3-0.4-2.2-2.1
						c0.2-8.4-1.1-6.8,6.5-6.9c12.1-0.1,24.2,0,36.4,0c1.2,0,2.5-0.2,3.7-0.4c2.5-0.4,3.7-2,3.7-4.4c0.1-5,0-10.1,0-15.1
						c0-2.4-1.4-3.7-3.7-4.1c-1.1-0.2-2.3-0.2-3.4-0.2c-14.2,0-28.5,0-42.7-0.1c-2.4,0-3.2,0.6-3.1,3.1c0.1,14.3,0,28.5,0.1,42.8
						c0,2.1-0.6,2.9-2.7,2.8c-4.3-0.1-8.7,0-13,0c-1.6,0-2.7-0.3-2.7-2.3C460.9,437.8,460.9,419.5,460.9,400.8z"/>
					<path class="st1" d="M313.4,457.6c-11.3,0-22.6,0.1-34-0.1c-2.5,0-5.1-0.8-7.4-1.6c-4.2-1.5-5.4-5.3-5.5-9.2
						c-0.2-11.6-0.3-23.2,0-34.8c0.1-5.7,2.9-9.3,9.2-10c5-0.5,10-0.9,15-0.9c18.8-0.1,37.5,0,56.3-0.1c2.2,0,2.9,0.7,2.8,2.9
						c-0.2,7.1,0.7,6-5.8,6c-17.1,0.1-34.1,0-51.2,0c-1,0-1.9,0-2.9,0c-4.1,0.2-5.5,1.5-5.6,5.7c-0.1,9.3-0.1,18.6,0,27.9
						c0,4.8,1.4,6.2,6.2,6.2c14,0.1,28,0,41.9,0c2.1,0,3-0.8,3-3c-0.1-5.9,0-11.9-0.1-17.8c0-2,0.6-2.7,2.6-2.6
						c3.4,0.1,6.9,0.1,10.3,0c2-0.1,2.6,0.7,2.6,2.6c-0.1,8.7-0.1,17.4,0,26c0,2.2-0.7,2.9-2.9,2.8
						C336.4,457.6,324.9,457.7,313.4,457.6C313.4,457.7,313.4,457.6,313.4,457.6z"/>
					<path class="st1" d="M444.6,400.9c0,2.5,0.1,4.6-0.1,6.7c-0.1,0.6-0.9,1.2-1.6,1.5c-0.7,0.3-1.6,0.1-2.4,0.1
						c-16.9,0-33.8,0-50.7,0c-1.4,0-2.8,0.1-4.2,0.4c-2,0.5-3.2,1.8-3.2,4c0,1.9,0,3.9,0,5.8c-0.2,4.4,0.4,4.6,5.4,5.7
						c0.8,0.2,1.8,0,2.6,0c14.9,0,29.7,0,44.6,0.2c2.2,0,4.5,0.8,6.6,1.7c2.6,1.2,4,3.3,4,6.3c0,4.9,0,9.7,0,14.6
						c0,3.9-1.9,6.7-5.4,7.9c-2.4,0.9-4.9,1.6-7.4,1.6c-21.3,0.2-42.6,0.1-63.9,0.2c-2.2,0-2.9-0.7-2.9-2.9c0.2-6-0.5-5.2,5.3-5.3
						c16.6,0,33.3,0,49.9,0c5.9,0,8-0.7,8.1-8c0.2-7.9-0.8-8.8-9-8.8c-13.4,0-26.7,0.1-40.1-0.1c-2.9,0-5.8-0.5-8.6-1.1
						c-3.1-0.7-5.4-3.4-5.5-6.6c-0.1-4.9-0.2-9.7,0-14.6c0.2-4.5,2.7-7.4,7.1-8.3c3-0.6,6.1-1,9.1-1c19.5-0.1,39.1,0,58.6,0
						C442,400.9,443.1,400.9,444.6,400.9z"/>
				</g>
			</g>
		</g>
	</g>
</g>
<g>
	<g>
		<path class="st2" d="M1011.5,797.3H12.7c-6.9,0-12.5-5.6-12.5-12.5V73.5C0.2,66.6,5.8,61,12.7,61h998.8c6.9,0,12.5,5.6,12.5,12.5
			v711.3C1024,791.7,1018.4,797.3,1011.5,797.3z M25.2,772.3H999V86H25.2V772.3z"/>
	</g>
	<g>
		<path class="st2" d="M940,725.9H84.2c-6.9,0-12.5-5.6-12.5-12.5V144.9c0-6.9,5.6-12.5,12.5-12.5H940c6.9,0,12.5,5.6,12.5,12.5
			v568.5C952.5,720.4,946.8,725.9,940,725.9z M96.7,700.9h830.8V157.4H96.7V700.9z"/>
	</g>
	<g>
		<path class="st2" d="M737.8,963.7H286.4c-6.9,0-12.5-5.6-12.5-12.5v-89.3c0-6.9,5.6-12.5,12.5-12.5h451.3
			c6.9,0,12.5,5.6,12.5,12.5v89.3C750.3,958.1,744.7,963.7,737.8,963.7z M298.8,938.7h426.4v-64.3H298.8V938.7z"/>
	</g>
</g>
</svg>
